<?xml version="1.0" encoding="utf-8"?>
<!-- Generator: Adobe Illustrator 16.0.0, SVG Export Plug-In . SVG Version: 6.00 Build 0)  -->
<!DOCTYPE svg PUBLIC "-//W3C//DTD SVG 1.1//EN" "http://www.w3.org/Graphics/SVG/1.1/DTD/svg11.dtd">
<svg xmlns:xlink="http://www.w3.org/1999/xlink" version="1.1" id="Layer_1" xmlns="http://www.w3.org/2000/svg" x="0px"
     y="0px"
     width="1366px" height="768px" viewBox="0 0 1366 768" enable-background="new 0 0 1366 768" xml:space="preserve">
<rect display="none" fill="#FFFFFF" width="1366" height="768"/>
    <rect display="none" fill="#1E272E" width="1366" height="768"/>
    <g>
	<path fill="#FCFCFC" d="M641.575,276.812v74.9h-17.334v-30.709h-34.026v30.709h-17.334v-74.9h17.334v29.532h34.026v-29.532H641.575
		z"/>
        <path fill="#FCFCFC" d="M674.852,290.936h-23.968v-14.124h65.27v14.124h-23.968v60.776h-17.334V290.936z"/>
        <path fill="#FCFCFC" d="M725.462,276.812h17.334v60.776h37.558v14.124h-54.892V276.812z"/>
</g>
    <g>
	<path fill="#FFFFFF" d="M587.484,385.207h-23.072v-13.596h62.83v13.596H604.17v58.504h-16.686V385.207z"/>
</g>
    <g>
	<path fill="#9372B1" d="M640.066,440.879c-4.635-2.438-8.258-5.82-10.867-10.146c-2.61-4.326-3.914-9.235-3.914-14.729
		c0-5.493,1.304-10.403,3.914-14.729c2.609-4.326,6.231-7.708,10.867-10.146c4.635-2.438,9.87-3.657,15.708-3.657
		c5.835,0,11.055,1.22,15.656,3.657c4.6,2.438,8.205,5.819,10.815,10.146c2.609,4.325,3.914,9.235,3.914,14.729
		c0,5.494-1.305,10.403-3.914,14.729c-2.61,4.325-6.215,7.708-10.815,10.146c-4.601,2.438-9.82,3.656-15.656,3.656
		C649.936,444.535,644.701,443.316,640.066,440.879z M665.919,427.18c2.643-2.781,3.965-6.505,3.965-11.176
		c0-4.669-1.323-8.395-3.965-11.176c-2.645-2.78-6.026-4.171-10.146-4.171c-4.12,0-7.519,1.391-10.197,4.171
		c-2.678,2.781-4.017,6.507-4.017,11.176c0,4.671,1.339,8.395,4.017,11.176c2.678,2.78,6.077,4.171,10.197,4.171
		C659.893,431.351,663.274,429.96,665.919,427.18z"/>
        <path fill="#9372B1" d="M707.53,440.879c-4.635-2.438-8.258-5.82-10.866-10.146c-2.61-4.326-3.914-9.235-3.914-14.729
		c0-5.493,1.304-10.403,3.914-14.729c2.608-4.326,6.231-7.708,10.866-10.146c4.636-2.438,9.871-3.657,15.708-3.657
		c5.835,0,11.055,1.22,15.656,3.657c4.6,2.438,8.204,5.819,10.814,10.146c2.609,4.325,3.914,9.235,3.914,14.729
		c0,5.494-1.305,10.403-3.914,14.729c-2.61,4.325-6.215,7.708-10.814,10.146c-4.602,2.438-9.821,3.656-15.656,3.656
		C717.401,444.535,712.166,443.316,707.53,440.879z M733.384,427.18c2.643-2.781,3.965-6.505,3.965-11.176
		c0-4.669-1.322-8.395-3.965-11.176c-2.645-2.78-6.025-4.171-10.146-4.171s-7.52,1.391-10.197,4.171
		c-2.678,2.781-4.017,6.507-4.017,11.176c0,4.671,1.339,8.395,4.017,11.176c2.678,2.78,6.077,4.171,10.197,4.171
		S730.739,429.96,733.384,427.18z"/>
</g>
    <g>
	<path fill="#FFFFFF" d="M764.335,367.285h16.068v76.426h-16.068V367.285z"/>
</g>
    <g>
	<path fill="#FFFFFF" d="M635.173,504.738c2.334,3.056,3.502,6.815,3.502,11.278c0,6.318-2.456,11.176-7.364,14.574
		c-4.91,3.399-12.069,5.099-21.476,5.099h-37.286v-72.1h35.226c8.789,0,15.535,1.683,20.24,5.047
		c4.703,3.365,7.055,7.931,7.055,13.699c0,3.502-0.841,6.627-2.523,9.372c-1.683,2.748-4.035,4.911-7.055,6.489
		C629.611,499.503,632.838,501.684,635.173,504.738z M589.132,476.155v16.995h16.583c4.12,0,7.244-0.721,9.373-2.163
		c2.128-1.441,3.193-3.569,3.193-6.386c0-2.814-1.065-4.927-3.193-6.335c-2.129-1.406-5.253-2.111-9.373-2.111H589.132z
		 M618.539,520.961c2.23-1.442,3.348-3.673,3.348-6.695c0-5.975-4.429-8.961-13.287-8.961h-19.467v17.818h19.467
		C612.993,523.123,616.306,522.402,618.539,520.961z"/>
</g>
    <g>
	<path fill="#D24592" d="M660.872,532.857c-4.635-2.438-8.258-5.82-10.867-10.146c-2.61-4.326-3.914-9.235-3.914-14.729
		c0-5.493,1.304-10.403,3.914-14.729c2.609-4.326,6.231-7.708,10.867-10.146c4.635-2.438,9.87-3.657,15.708-3.657
		c5.835,0,11.055,1.22,15.656,3.657c4.6,2.438,8.204,5.819,10.814,10.146c2.609,4.325,3.914,9.235,3.914,14.729
		c0,5.494-1.305,10.403-3.914,14.729c-2.61,4.325-6.215,7.708-10.814,10.146c-4.602,2.438-9.821,3.656-15.656,3.656
		C670.742,536.514,665.506,535.295,660.872,532.857z M686.725,519.158c2.643-2.781,3.965-6.505,3.965-11.176
		c0-4.669-1.322-8.395-3.965-11.176c-2.645-2.78-6.026-4.171-10.146-4.171c-4.12,0-7.519,1.391-10.197,4.171
		c-2.678,2.781-4.017,6.507-4.017,11.176c0,4.671,1.339,8.395,4.017,11.176c2.678,2.78,6.077,4.171,10.197,4.171
		C680.699,523.329,684.08,521.938,686.725,519.158z"/>
</g>
    <g>
	<path fill="#FFFFFF" d="M751.15,535.689l-12.153-16.995l-12.566,16.995h-17.51l21.321-27.913l-20.601-27.501h18.025l11.742,16.171
		l12.051-16.171h17.098l-20.6,27.089l21.424,28.325H751.15z"/>
</g>
    <g>
	<defs>
		<rect id="SVGID_1_" width="1366" height="768"/>
	</defs>
        <clipPath id="SVGID_2_">
		<use xlink:href="#SVGID_1_" overflow="visible"/>
	</clipPath>
        <path clip-path="url(#SVGID_2_)" fill="#9560A4" d="M722.328,385.824h2.314c16.662,0,30.168,13.506,30.168,30.167v0.003
		c0,16.661-13.506,30.167-30.168,30.167h-2.314c-16.661,0-30.168-13.506-30.168-30.167v-0.003
		C692.16,399.33,705.667,385.824,722.328,385.824"/>
        <path clip-path="url(#SVGID_2_)" fill="#9560A4" d="M655.167,385.824h2.315c16.662,0,30.168,13.506,30.168,30.167v0.003
		c0,16.661-13.506,30.167-30.168,30.167h-2.315c-16.661,0-30.167-13.506-30.167-30.167v-0.003
		C625,399.33,638.506,385.824,655.167,385.824"/>
        <path clip-path="url(#SVGID_2_)" fill="#D24592" d="M675.406,477.824h2.31c16.621,0,30.095,13.474,30.095,30.095v0.003
		c0,16.621-13.474,30.096-30.095,30.096h-2.31c-16.621,0-30.095-13.475-30.095-30.096v-0.003
		C645.311,491.298,658.785,477.824,675.406,477.824"/>
</g>
</svg>
