<?xml version="1.0" encoding="utf-8"?>
<!-- Generator: Adobe Illustrator 16.0.0, SVG Export Plug-In . SVG Version: 6.00 Build 0)  -->
<!DOCTYPE svg PUBLIC "-//W3C//DTD SVG 1.1//EN" "http://www.w3.org/Graphics/SVG/1.1/DTD/svg11.dtd">
<svg version="1.1" id="Layer_1" xmlns="http://www.w3.org/2000/svg" x="0px"
     y="0px"
     width="100px" height="100px" viewBox="0 0 100 100" enable-background="new 0 0 100 100" xml:space="preserve">
<rect x="176" y="-215" stroke="#000000" stroke-width="10" stroke-linejoin="round" stroke-miterlimit="10" width="20"
      height="67"/>
    <rect x="135" y="-215" stroke="#000000" stroke-width="10" stroke-linejoin="round" stroke-miterlimit="10" width="20"
          height="67"/>
    <rect x="156" y="-106" stroke="#000000" stroke-width="10" stroke-linejoin="round" stroke-miterlimit="10" width="20"
          height="67"/>
    <rect x="132" y="-83" stroke="#000000" stroke-width="10" stroke-linejoin="round" stroke-miterlimit="10" width="67"
          height="20"/>
    <polygon stroke="#000000" stroke-width="10" stroke-linejoin="round" stroke-miterlimit="10" points="241,-217.907
	304.834,-181.053 241,-144.199 "/>
    <polygon stroke="#000000" stroke-width="10" stroke-linejoin="round" stroke-miterlimit="10" points="349,-217.907
	412.834,-181.053 349,-144.199 "/>
    <rect x="416.5" y="-214.5" stroke="#000000" stroke-width="3" stroke-linejoin="round" stroke-miterlimit="10"
          width="3" height="66"/>
    <g>
	
		<rect x="384" y="-172" fill="#7AC943" stroke="#7AC943" stroke-width="4" stroke-linejoin="round"
              stroke-miterlimit="10" width="9" height="29"/>

        <rect x="374" y="-162" fill="#7AC943" stroke="#7AC943" stroke-width="4" stroke-linejoin="round"
              stroke-miterlimit="10" width="29" height="9"/>
</g>
    <polygon stroke="#000000" stroke-width="10" stroke-linejoin="round" stroke-miterlimit="10" points="349,-109.907 412.834,-73.053
	349,-36.199 "/>
    <g>
	
		<rect x="384" y="-64" fill="#7AC943" stroke="#7AC943" stroke-width="4" stroke-linejoin="round"
              stroke-miterlimit="10" width="9" height="29"/>

        <rect x="374" y="-54" fill="#7AC943" stroke="#7AC943" stroke-width="4" stroke-linejoin="round"
              stroke-miterlimit="10" width="29" height="9"/>
</g>
    <ellipse cx="273.083" cy="-87.917" rx="23.472" ry="24.644"/>
    <path d="M316.843-22c0.012-1,0.032-1.061,0.032-1.47c0-23.626-19.606-42.905-43.792-42.905s-43.792,19.341-43.792,42.968
	c0,0.409,0.02,0.407,0.032,1.407H316.843z"/>
    <g>
	
		<rect x="292" y="-63" fill="#7AC943" stroke="#7AC943" stroke-width="4" stroke-linejoin="round"
              stroke-miterlimit="10" width="9" height="29"/>

        <rect x="282" y="-53" fill="#7AC943" stroke="#7AC943" stroke-width="4" stroke-linejoin="round"
              stroke-miterlimit="10" width="29" height="9"/>
</g>
    <ellipse fill="#FFFFFF" cx="273.083" cy="35.083" rx="23.472" ry="24.644"/>
    <path fill="#FFFFFF" d="M316.843,101c0.012-1,0.032-1.061,0.032-1.47c0-23.626-19.606-42.905-43.792-42.905
	s-43.792,19.341-43.792,42.968c0,0.409,0.02,0.407,0.032,1.407H316.843z"/>
    <polygon fill="#7AC943" stroke="#7AC943" stroke-width="2" stroke-linejoin="round" stroke-miterlimit="10" points="512,-162.245
	519.834,-157.722 512,-153.199 "/>
    <polygon fill="#662D91" stroke="#662D91" stroke-width="2" stroke-linejoin="round" stroke-miterlimit="10" points="513,-211.245
	520.834,-206.722 513,-202.199 "/>
    <path fill="none" stroke="#662D91" stroke-width="4" stroke-linecap="round" stroke-linejoin="round"
          stroke-miterlimit="10" d="
	M459.37-157.375c15.129,0,27.372-10.625,27.372-24.625h0.011c0-14,12.243-25.188,27.372-25.188"/>
    <path fill="none" stroke="#7AC943" stroke-width="4" stroke-linecap="round" stroke-linejoin="round"
          stroke-miterlimit="10" d="
	M459.37-207.531c15.129,0,27.372,11.531,27.372,25.531h0.011c0,14,12.243,24.734,27.372,24.734"/>
    <g>
	
		<line fill="none" stroke="#000000" stroke-width="17" stroke-linecap="round" stroke-linejoin="round"
              stroke-miterlimit="10" x1="456" y1="-43.5" x2="521" y2="-43.5"/>

        <line fill="none" stroke="#000000" stroke-width="17" stroke-linecap="round" stroke-linejoin="round"
              stroke-miterlimit="10" x1="456" y1="-72.5" x2="521" y2="-72.5"/>

        <line fill="none" stroke="#000000" stroke-width="17" stroke-linecap="round" stroke-linejoin="round"
              stroke-miterlimit="10" x1="456" y1="-100.5" x2="521" y2="-100.5"/>
</g>
    <g>
	
		<line fill="none" stroke="#FFFFFF" stroke-width="17" stroke-linecap="round" stroke-linejoin="round"
              stroke-miterlimit="10" x1="456" y1="79.5" x2="521" y2="79.5"/>

        <line fill="none" stroke="#FFFFFF" stroke-width="17" stroke-linecap="round" stroke-linejoin="round"
              stroke-miterlimit="10" x1="456" y1="50.5" x2="521" y2="50.5"/>

        <line fill="none" stroke="#FFFFFF" stroke-width="17" stroke-linecap="round" stroke-linejoin="round"
              stroke-miterlimit="10" x1="456" y1="22.5" x2="521" y2="22.5"/>
</g>
    <g>
	
		<line fill="none" stroke="#000000" stroke-width="11" stroke-linecap="round" stroke-linejoin="round"
              stroke-miterlimit="10" x1="19.833" y1="-150.333" x2="40.527" y2="-171.121"/>

        <circle fill="none" stroke="#000000" stroke-width="11" stroke-linecap="round" stroke-linejoin="round"
                stroke-miterlimit="10" cx="55.625" cy="-186.25" r="21.375"/>
</g>
    <g>
	
		<line fill="none" stroke="#FFFFFF" stroke-width="11" stroke-linecap="round" stroke-linejoin="round"
              stroke-miterlimit="10" x1="19.833" y1="80.667" x2="40.527" y2="59.879"/>

        <circle fill="none" stroke="#FFFFFF" stroke-width="11" stroke-linecap="round" stroke-linejoin="round"
                stroke-miterlimit="10" cx="55.625" cy="44.75" r="21.375"/>
</g>
</svg>
