<?xml version="1.0" encoding="utf-8"?>
<!-- Generator: Adobe Illustrator 16.0.0, SVG Export Plug-In . SVG Version: 6.00 Build 0)  -->
<!DOCTYPE svg PUBLIC "-//W3C//DTD SVG 1.1//EN" "http://www.w3.org/Graphics/SVG/1.1/DTD/svg11.dtd">
<svg version="1.1" id="Layer_1" xmlns="http://www.w3.org/2000/svg" x="0px"
     y="0px"
     width="100px" height="100px" viewBox="0 0 100 100" enable-background="new 0 0 100 100" xml:space="preserve">
<rect x="-47" y="-215" stroke="#000000" stroke-width="10" stroke-linejoin="round" stroke-miterlimit="10" width="20"
      height="67"/>
    <rect x="-88" y="-215" stroke="#000000" stroke-width="10" stroke-linejoin="round" stroke-miterlimit="10" width="20"
          height="67"/>
    <rect x="-67" y="-106" stroke="#000000" stroke-width="10" stroke-linejoin="round" stroke-miterlimit="10" width="20"
          height="67"/>
    <rect x="-91" y="-83" stroke="#000000" stroke-width="10" stroke-linejoin="round" stroke-miterlimit="10" width="67"
          height="20"/>
    <polygon stroke="#000000" stroke-width="10" stroke-linejoin="round" stroke-miterlimit="10" points="18,-217.907 81.834,-181.053
	18,-144.199 "/>
    <polygon stroke="#000000" stroke-width="10" stroke-linejoin="round" stroke-miterlimit="10" points="126,-217.907
	189.834,-181.053 126,-144.199 "/>
    <rect x="193.5" y="-214.5" stroke="#000000" stroke-width="3" stroke-linejoin="round" stroke-miterlimit="10"
          width="3" height="66"/>
    <g>
	
		<rect x="161" y="-172" fill="#7AC943" stroke="#7AC943" stroke-width="4" stroke-linejoin="round"
              stroke-miterlimit="10" width="9" height="29"/>

        <rect x="151" y="-162" fill="#7AC943" stroke="#7AC943" stroke-width="4" stroke-linejoin="round"
              stroke-miterlimit="10" width="29" height="9"/>
</g>
    <polygon stroke="#000000" stroke-width="10" stroke-linejoin="round" stroke-miterlimit="10" points="126,-109.907 189.834,-73.053
	126,-36.199 "/>
    <g>
	
		<rect x="161" y="-64" fill="#7AC943" stroke="#7AC943" stroke-width="4" stroke-linejoin="round"
              stroke-miterlimit="10" width="9" height="29"/>

        <rect x="151" y="-54" fill="#7AC943" stroke="#7AC943" stroke-width="4" stroke-linejoin="round"
              stroke-miterlimit="10" width="29" height="9"/>
</g>
    <ellipse cx="50.083" cy="-87.917" rx="23.472" ry="24.644"/>
    <path d="M93.843-22c0.012-1,0.032-1.061,0.032-1.47c0-23.626-19.606-42.905-43.792-42.905S6.292-47.034,6.292-23.407
	c0,0.409,0.02,0.407,0.032,1.407H93.843z"/>
    <g>
	
		<rect x="69" y="-63" fill="#7AC943" stroke="#7AC943" stroke-width="4" stroke-linejoin="round"
              stroke-miterlimit="10" width="9" height="29"/>

        <rect x="59" y="-53" fill="#7AC943" stroke="#7AC943" stroke-width="4" stroke-linejoin="round"
              stroke-miterlimit="10" width="29" height="9"/>
</g>
    <ellipse fill="#FFFFFF" cx="50.083" cy="35.083" rx="23.472" ry="24.644"/>
    <path fill="#FFFFFF" d="M93.843,101c0.012-1,0.032-1.061,0.032-1.47c0-23.626-19.606-42.905-43.792-42.905
	S6.292,75.966,6.292,99.593c0,0.409,0.02,0.407,0.032,1.407H93.843z"/>
    <polygon fill="#7AC943" stroke="#7AC943" stroke-width="2" stroke-linejoin="round" stroke-miterlimit="10" points="289,-162.245
	296.834,-157.722 289,-153.199 "/>
    <polygon fill="#662D91" stroke="#662D91" stroke-width="2" stroke-linejoin="round" stroke-miterlimit="10" points="290,-211.245
	297.834,-206.722 290,-202.199 "/>
    <path fill="none" stroke="#662D91" stroke-width="4" stroke-linecap="round" stroke-linejoin="round"
          stroke-miterlimit="10" d="
	M236.37-157.375c15.129,0,27.372-10.625,27.372-24.625h0.011c0-14,12.243-25.188,27.372-25.188"/>
    <path fill="none" stroke="#7AC943" stroke-width="4" stroke-linecap="round" stroke-linejoin="round"
          stroke-miterlimit="10" d="
	M236.37-207.531c15.129,0,27.372,11.531,27.372,25.531h0.011c0,14,12.243,24.734,27.372,24.734"/>
    <g>
	
		<line fill="none" stroke="#000000" stroke-width="17" stroke-linecap="round" stroke-linejoin="round"
              stroke-miterlimit="10" x1="233" y1="-43.5" x2="298" y2="-43.5"/>

        <line fill="none" stroke="#000000" stroke-width="17" stroke-linecap="round" stroke-linejoin="round"
              stroke-miterlimit="10" x1="233" y1="-72.5" x2="298" y2="-72.5"/>

        <line fill="none" stroke="#000000" stroke-width="17" stroke-linecap="round" stroke-linejoin="round"
              stroke-miterlimit="10" x1="233" y1="-100.5" x2="298" y2="-100.5"/>
</g>
    <g>
	
		<line fill="none" stroke="#FFFFFF" stroke-width="17" stroke-linecap="round" stroke-linejoin="round"
              stroke-miterlimit="10" x1="233" y1="79.5" x2="298" y2="79.5"/>

        <line fill="none" stroke="#FFFFFF" stroke-width="17" stroke-linecap="round" stroke-linejoin="round"
              stroke-miterlimit="10" x1="233" y1="50.5" x2="298" y2="50.5"/>

        <line fill="none" stroke="#FFFFFF" stroke-width="17" stroke-linecap="round" stroke-linejoin="round"
              stroke-miterlimit="10" x1="233" y1="22.5" x2="298" y2="22.5"/>
</g>
</svg>
