<?xml version="1.0" encoding="utf-8"?>
<!-- Generator: Adobe Illustrator 16.0.4, SVG Export Plug-In . SVG Version: 6.00 Build 0)  -->
<!DOCTYPE svg PUBLIC "-//W3C//DTD SVG 1.1//EN" "http://www.w3.org/Graphics/SVG/1.1/DTD/svg11.dtd">
<svg version="1.1" id="Ebene_1" xmlns="http://www.w3.org/2000/svg" x="0px"
     y="0px"
     width="932.138px" height="535.961px" viewBox="0 -127.316 932.138 535.961"
     enable-background="new 0 -127.316 932.138 535.961"
     xml:space="preserve">
<g>
	<g>
		<path d="M416.947,118.676h14.975v37.952h35.499v-37.952h14.975v90.362h-14.975v-38.469h-35.499v38.469h-14.975V118.676z"/>
        <path d="M519.96,132.617h-23.754v-13.941h62.48v13.941h-23.754v76.421H519.96V132.617z"/>
        <path d="M572.755,118.676h32.273c9.811,0,18.072,2.71,23.107,7.745c4,4.002,6.066,9.036,6.066,15.232v0.387
			c0,11.103-6.455,16.911-13.297,20.268c9.941,3.485,17.17,9.424,17.17,21.558v0.517c0,15.878-12.91,24.656-32.145,24.656h-33.176
			V118.676z M619.227,144.105c0-7.616-5.551-12.005-15.232-12.005h-16.523v25.043h15.619c9.812,0,16.137-4.389,16.137-12.779
			V144.105z M605.673,169.795h-18.201v25.818h18.848c10.326,0,16.781-4.519,16.781-12.78v-0.259
			C623.1,174.7,617.034,169.795,605.673,169.795z"/>
        <path d="M653.048,118.676h14.975v76.55h38.727v13.812h-53.701V118.676z"/>
        <path d="M718.237,186.447V140.62h14.586v41.696c0,9.553,4.52,14.846,12.135,14.846c7.617,0,12.91-5.68,12.91-15.104V140.62h14.715
			v68.418h-14.715v-9.939c-3.873,6.066-9.295,11.23-18.59,11.23C725.981,210.329,718.237,201.164,718.237,186.447z"/>
        <path d="M781.36,118.676h16.266l22.203,68.288l22.203-68.288h15.748l-31.238,90.879h-13.812L781.36,118.676z"/>
        <path d="M884.503,118.159h14.459l33.176,90.879h-15.621l-7.486-21.3h-35.113l-7.486,21.3h-15.104L884.503,118.159z
			 M904.384,174.442l-12.91-36.274l-12.908,36.274H904.384z"/>
	</g>
    <g>
		<path d="M413.905,275.385l4.587-5.702c3.407,3.081,7.209,5.44,12.059,5.44c4.392,0,7.209-2.426,7.209-5.833v-0.065
			c0-2.884-1.507-4.784-8.782-7.472c-8.716-3.276-13.238-6.488-13.238-13.828v-0.131c0-7.537,6.029-12.846,14.549-12.846
			c5.309,0,10.225,1.704,14.418,5.374l-4.324,5.833c-3.146-2.556-6.619-4.325-10.289-4.325c-4.129,0-6.686,2.294-6.686,5.309v0.065
			c0,3.211,1.704,4.915,9.503,7.93c8.521,3.277,12.452,6.816,12.452,13.501v0.131c0,8.061-6.291,13.238-14.877,13.238
			C424.587,282.004,418.885,279.973,413.905,275.385z"/>
        <path d="M451.782,271.452v-0.327c0-7.472,4.98-11.142,12.322-11.142c3.275,0,5.635,0.59,7.994,1.377v-1.442
			c0-4.653-2.752-7.078-7.471-7.078c-3.342,0-6.096,1.049-8.389,2.098l-2.098-5.898c3.342-1.639,6.816-2.753,11.469-2.753
			c4.523,0,7.996,1.245,10.225,3.539c2.293,2.294,3.473,5.702,3.473,10.027v21.562h-7.273v-4.26
			c-2.033,2.949-5.113,4.915-9.635,4.915C456.632,282.069,451.782,278.203,451.782,271.452z M472.165,269.749v-3.474
			c-1.705-0.721-3.934-1.245-6.424-1.245c-4.26,0-6.75,2.162-6.75,5.832v0.132c0,3.473,2.426,5.439,5.637,5.505
			C468.887,276.564,472.165,273.681,472.165,269.749z"/>
        <path d="M488.876,234.097h7.404v47.317h-7.404V234.097z"/>
        <path d="M504.733,276.302l16.908-23.462h-16.318v-6.16h25.363v5.112l-16.908,23.462h16.842v6.16h-25.887V276.302z"/>
        <path d="M546.02,276.171v5.243h-7.404v-47.317h7.404v18.153c2.164-3.342,5.178-6.226,10.158-6.226
			c6.947,0,13.502,5.833,13.502,17.563v0.918c0,11.665-6.488,17.563-13.502,17.563C551.134,282.069,548.118,279.251,546.02,276.171z
			 M562.208,264.375v-0.59c0-6.947-3.604-11.207-8.061-11.207s-8.258,4.325-8.258,11.141v0.656c0,6.815,3.801,11.141,8.258,11.141
			C558.669,275.516,562.208,271.321,562.208,264.375z"/>
        <path d="M577.477,269.945V246.68h7.406v21.168c0,4.85,2.293,7.537,6.16,7.537s6.553-2.884,6.553-7.668V246.68h7.471v34.734h-7.471
			v-5.046c-1.965,3.08-4.719,5.701-9.438,5.701C581.409,282.069,577.477,277.416,577.477,269.945z"/>
        <path d="M614.635,246.68h7.404v6.815c1.836-4.521,5.178-7.602,10.422-7.34v8.062h-0.328c-6.029,0-10.094,3.932-10.094,11.861
			v15.336h-7.404V246.68z"/>
        <path d="M638.489,288.164l2.426-5.832c3.014,1.835,6.684,2.948,10.42,2.948c6.096,0,9.438-3.015,9.438-9.175v-3.342
			c-2.426,3.407-5.439,6.095-10.486,6.095c-6.947,0-13.238-5.571-13.238-16.253v-0.263c0-10.748,6.357-16.318,13.238-16.318
			c5.111,0,8.191,2.753,10.42,5.833v-5.178h7.406v29.099c0,5.177-1.377,8.979-3.932,11.534c-2.754,2.818-7.014,4.129-12.518,4.129
			C646.878,291.441,642.487,290.327,638.489,288.164z M660.837,262.539v-0.131c0-6.095-3.865-9.896-8.322-9.896
			c-4.521,0-7.996,3.735-7.996,9.896v0.065c0,6.161,3.539,9.962,7.996,9.962S660.837,268.569,660.837,262.539z"/>
	</g>
    <g>
		<g>
			<rect x="72.553" fill="#FCBF00" width="63.657" height="63.658"/>
		</g>
        <g>
			<rect x="72.553" y="72.554" fill="#E68B00" width="63.657" height="63.66"/>
		</g>
        <g>
			<rect x="0.001" y="145.111" fill="#DB3F29" width="63.655" height="63.66"/>
		</g>
        <g>
			<rect x="72.553" y="217.668" fill="#9560A4" width="63.661" height="63.66"/>
		</g>
        <g>
			<rect x="145.11" y="145.111" fill="#D24592" width="63.659" height="63.66"/>
		</g>
        <g>
			<rect x="217.668" y="217.672" fill="#4F8FCC" width="63.657" height="63.658"/>
		</g>
        <g>
			<rect x="290.228" y="145.111" fill="#009D60" width="63.655" height="63.66"/>
		</g>
        <g>
			<rect x="217.668" y="72.554" fill="#AEBE38" width="63.657" height="63.66"/>
		</g>
        <g>
			<rect x="0.001" fill="#FCBF00" width="63.655" height="63.658"/>
		</g>
	</g>
</g>
</svg>
